<svg version="1.0" xmlns="http://www.w3.org/2000/svg" width="700pt" height="700pt" viewBox="0 0 700 700"><g transform="translate(0.000000,700.000000) scale(0.100000,-0.100000)" fill="#000" stroke="none"><path d="M1095 6990c-234-27-433-194-490-411-22-81-22-2907 0-2988 23-90 66-162 140-237 96-98 205-152 350-174 28-4-208-8-522-9l-573-1v-270-270h655 655V1518c0-1211-1-1184 56-1289 34-61 112-139 173-172 110-60 0-57 1958-57 1273 0 1807 3 1845 11 113 24 236 116 292 218 57 105 56 78 56 1289v1112h655 655v270 270l-572 1c-315 1-550 5-523 9 245 37 438 203 490 421 22 94 23 2895 0 2978-22 84-62 157-123 223-72 78-154 131-256 166l-81 27-2390 1c-1314 1-2417-2-2450-6zm4743-1902-3-1373H35e2 1165l-3 1373-2 1372h2340 2340l-2-1372zM2408 2188l2-218h-220-220v220 220l218-2 217-3 3-217zm652 2v-220h-215-215v220 220h215 215v-220zm660 0v-220h-220-220v220 220h220 220v-220zm650 0v-220h-215-215v220 220h215 215v-220zm660 0v-220h-220-220v213c0 118 3 217 7 220 3 4 102 7 220 7h213v-220zm-2622-657-3-218-217-3-218-2v220 220h220 220l-2-217zm652-3v-220h-215-215v220 220h215 215v-220zm660 0v-220h-220-220v220 220h220 220v-220zm650 0v-220h-215-215v220 220h215 215v-220zm660 0v-220l-217 2-218 3-3 218-2 217h220 220v-220zm-660-875V440h-870-870v215 215h870 870V655z"/><path d="M3420 6239c-528-51-874-380-955-909-19-123-19-396 0-520 70-461 337-768 762-876 257-65 616-47 868 43 82 30 209 92 283 139l52 34v485 485h-405-405v-125-125h250 250v-306-305l-62-29c-114-53-206-72-390-77-179-6-280 4-387 37-182 57-326 178-404 341-74 153-107 319-107 539 0 537 211 836 643 911 115 19 362 7 482-25 121-32 292-115 393-191 40-30 75-55 78-55 2 0 3 73 2 162l-3 162-90 48c-162 85-346 138-555 157-128 12-175 12-3e2.0z"/></g></svg>