<?xml version="1.0" standalone="no"?>
<!DOCTYPE svg PUBLIC "-//W3C//DTD SVG 20010904//EN"
 "http://www.w3.org/TR/2001/REC-SVG-20010904/DTD/svg10.dtd">
<svg version="1.0" xmlns="http://www.w3.org/2000/svg"
 width="700.000000pt" height="700.000000pt" viewBox="0 0 700.000000 700.000000"
 preserveAspectRatio="xMidYMid meet">
<metadata>
Created by potrace 1.14, written by Peter Selinger 2001-2017
</metadata>
<g transform="translate(0.000000,700.000000) scale(0.100000,-0.100000)"
fill="#000000" stroke="none">
<path d="M1095 6990 c-234 -27 -433 -194 -490 -411 -22 -81 -22 -2907 0 -2988
23 -90 66 -162 140 -237 96 -98 205 -152 350 -174 28 -4 -208 -8 -522 -9
l-573 -1 0 -270 0 -270 655 0 655 0 0 -1112 c0 -1211 -1 -1184 56 -1289 34
-61 112 -139 173 -172 110 -60 0 -57 1958 -57 1273 0 1807 3 1845 11 113 24
236 116 292 218 57 105 56 78 56 1289 l0 1112 655 0 655 0 0 270 0 270 -572 1
c-315 1 -550 5 -523 9 245 37 438 203 490 421 22 94 23 2895 0 2978 -22 84
-62 157 -123 223 -72 78 -154 131 -256 166 l-81 27 -2390 1 c-1314 1 -2417 -2
-2450 -6z m4743 -1902 l-3 -1373 -2335 0 -2335 0 -3 1373 -2 1372 2340 0 2340
0 -2 -1372z m-3430 -2900 l2 -218 -220 0 -220 0 0 220 0 220 218 -2 217 -3 3
-217z m652 2 l0 -220 -215 0 -215 0 0 220 0 220 215 0 215 0 0 -220z m660 0
l0 -220 -220 0 -220 0 0 220 0 220 220 0 220 0 0 -220z m650 0 l0 -220 -215 0
-215 0 0 220 0 220 215 0 215 0 0 -220z m660 0 l0 -220 -220 0 -220 0 0 213
c0 118 3 217 7 220 3 4 102 7 220 7 l213 0 0 -220z m-2622 -657 l-3 -218 -217
-3 -218 -2 0 220 0 220 220 0 220 0 -2 -217z m652 -3 l0 -220 -215 0 -215 0 0
220 0 220 215 0 215 0 0 -220z m660 0 l0 -220 -220 0 -220 0 0 220 0 220 220
0 220 0 0 -220z m650 0 l0 -220 -215 0 -215 0 0 220 0 220 215 0 215 0 0 -220z
m660 0 l0 -220 -217 2 -218 3 -3 218 -2 217 220 0 220 0 0 -220z m-660 -875
l0 -215 -870 0 -870 0 0 215 0 215 870 0 870 0 0 -215z"/>
<path d="M3420 6239 c-528 -51 -874 -380 -955 -909 -19 -123 -19 -396 0 -520
70 -461 337 -768 762 -876 257 -65 616 -47 868 43 82 30 209 92 283 139 l52
34 0 485 0 485 -405 0 -405 0 0 -125 0 -125 250 0 250 0 0 -306 0 -305 -62
-29 c-114 -53 -206 -72 -390 -77 -179 -6 -280 4 -387 37 -182 57 -326 178
-404 341 -74 153 -107 319 -107 539 0 537 211 836 643 911 115 19 362 7 482
-25 121 -32 292 -115 393 -191 40 -30 75 -55 78 -55 2 0 3 73 2 162 l-3 162
-90 48 c-162 85 -346 138 -555 157 -128 12 -175 12 -300 0z"/>
</g>
</svg>
